# xmcd CD database file
#
# Track frame offsets:
#	150
#	12978
#	24045
#	44200
#	59328
#	74990
#	92700
#	106310
#	119748
#	134678
#	147763
#	156848
#	169608
#	179423
#	189368
#	200833
#	215125
#	226798
#
# Disc length: 3138 seconds
#
# Revision: 0
# Processed by: cddbd v1.5.1PL0 Copyright (c) Steve Scherf et al.
# Submitted via: CDex 1.51
#
DISCID=140c4012
DTITLE=Frank and Belinda - Welcome In Our Country World
DYEAR=1900
DGENRE=Country
TTITLE0=Bouquet Of Roses
TTITLE1=Before The Next Teardrop Falls
TTITLE2=He'll Have To Go
TTITLE3=Somewhere Between
TTITLE4=It Keeps Roght On A-hurting
TTITLE5=Blue Bayou
TTITLE6=Since I Met You Baby
TTITLE7=Good Year For The Roses
TTITLE8=Have You Ever Been Lonely
TTITLE9=Vaya Con Dios
TTITLE10=Welcome To My World
TTITLE11=I Don't Wanna Have To Marry You
TTITLE12=Goodnight Irene
TTITLE13=Together Again
TTITLE14=Love Is No Excuse
TTITLE15=I Love You Because
TTITLE16=I'm Leaving It All Up To You
TTITLE17=Crying Time
EXTD=
EXTT0=
EXTT1=
EXTT2=
EXTT3=
EXTT4=
EXTT5=
EXTT6=
EXTT7=
EXTT8=
EXTT9=
EXTT10=
EXTT11=
EXTT12=
EXTT13=
EXTT14=
EXTT15=
EXTT16=
EXTT17=
PLAYORDER=
